<?xml version="1.0" encoding="UTF-8"?>
<svg version="1.1" baseProfile="full" xmlns="http://www.w3.org/2000/svg" 
width="250px" height="175px" viewBox="0,0 500,300">
<g font-size="1.5em" font-family="Verdana">
   <rect x="10" y="10" width="55px" height="25px" fill="red" />
   <rect x="65" y="10" width="150px" height="25px" fill="lime" />
   <text x="15" y="30" fill="white">SVG</text>
   <text x="70" y="30" fill="black">CNIT 131A</text>
</g>
<g font-size="1.5em" font-family="Verdana" transform="translate(235, 0)">
   <rect x="10" y="10" width="55px" height="25px" fill="red" />
   <rect x="65" y="10" width="150px" height="25px" fill="lime" />
   <text x="15" y="30" fill="white">SVG</text>
   <text x="70" y="30" fill="black">Translated</text>
</g>
<g font-size="1.5em" font-family="Verdana" transform="translate(0,35),skewY(25)">
   <rect x="10" y="10" width="55px" height="25px" fill="red" />
   <rect x="65" y="10" width="150px" height="25px" fill="lime" />
   <text x="15" y="30" fill="white">SVG</text>
   <text x="70" y="30" fill="black">Y-Skewed</text>
</g>
<g font-size="1.5em" font-family="Verdana" transform="translate(235,50),rotate(35)">
   <rect x="10" y="10" width="55px" height="25px" fill="red" />
   <rect x="65" y="10" width="150px" height="25px" fill="lime" />
   <text x="15" y="30" fill="white">SVG</text>
   <text x="70" y="30" fill="black">Rotated</text>
</g>
<g font-size="1.5em" font-family="Verdana" transform="translate(0,190),scale(3)">
   <rect x="10" y="10" width="55px" height="25px" fill="red" />
   <rect x="65" y="10" width="150px" height="25px" fill="lime" />
   <text x="15" y="30" fill="white">SVG</text>
   <text x="70" y="30" fill="black">Scaled</text>
</g>
</svg>